<?xml version="1.0" encoding="UTF-8" standalone="no"?>
<svg width="32" height="32" viewBox="0 0 32 32" version="1.1" xmlns="http://www.w3.org/2000/svg" xmlns:xlink="http://www.w3.org/1999/xlink" xml:space="preserve" style="fill-rule:evenodd;clip-rule:evenodd;stroke-linejoin:round;stroke-miterlimit:2;">
    <g transform="matrix(1.55497,0,0,1.55497,-2.6649,-2.6649)">
        <path d="M5,21C4.45,21 3.979,20.804 3.588,20.413C3.196,20.021 3,19.55 3,19L3,5C3,4.45 3.196,3.979 3.588,3.587C3.979,3.196 4.45,3 5,3L19,3C19.55,3 20.021,3.196 20.413,3.587C20.804,3.979 21,4.45 21,5L21,19C21,19.55 20.804,20.021 20.413,20.413C20.021,20.804 19.55,21 19,21L5,21ZM5,19L19,19L19,5L5,5L5,19ZM6,17L18,17L14.25,12L11.25,16L9,13L6,17ZM5,19L5,5L5,19ZM8.5,10C8.917,10 9.271,9.854 9.563,9.563C9.854,9.271 10,8.917 10,8.5C10,8.083 9.854,7.729 9.563,7.438C9.271,7.146 8.917,7 8.5,7C8.083,7 7.729,7.146 7.438,7.438C7.146,7.729 7,8.083 7,8.5C7,8.917 7.146,9.271 7.438,9.563C7.729,9.854 8.083,10 8.5,10Z" style="fill-rule:nonzero;"/>
    </g>
</svg>
