<svg width="32" height="32" xmlns="http://www.w3.org/2000/svg" xml:space="preserve" style="fill-rule:evenodd;clip-rule:evenodd;stroke-linejoin:round;stroke-miterlimit:2"><path d="m4 4 2 4h3L7 4h2l2 4h3l-2-4h2l2 4h3l-2-4h3c.55 0 1.021.196 1.413.587.391.392.587.863.587 1.413v12a1.93 1.93 0 0 1-.587 1.413A1.93 1.93 0 0 1 20 20H4c-.55 0-1.021-.196-1.412-.587A1.927 1.927 0 0 1 2 18V6c0-.55.196-1.021.588-1.413A1.926 1.926 0 0 1 4 4Z" style="fill-rule:nonzero" transform="translate(-.804 -.607) scale(1.40177)"/></svg>